<mxfile host="app.diagrams.net" modified="2020-09-24T12:22:26.652Z" agent="5.0 (Macintosh; Intel Mac OS X 10_15_3) AppleWebKit/537.36 (KHTML, like Gecko) Chrome/85.0.4183.102 Safari/537.36" etag="dsxfZ8JNy9Lde-VdWMJ_" version="13.7.5" type="github">
  <diagram id="kEH8l-H0qlZYwD9actFR" name="Page-1">
    <mxGraphModel dx="1298" dy="687" grid="1" gridSize="10" guides="1" tooltips="1" connect="1" arrows="1" fold="1" page="1" pageScale="1" pageWidth="827" pageHeight="800" math="0" shadow="0">
      <root>
        <mxCell id="0" />
        <mxCell id="1" parent="0" />
        <mxCell id="BFRysCJp0LdjBgDe9ejV-12" style="edgeStyle=orthogonalEdgeStyle;rounded=0;orthogonalLoop=1;jettySize=auto;html=1;exitX=1;exitY=0.5;exitDx=0;exitDy=0;entryX=0;entryY=0.5;entryDx=0;entryDy=0;" edge="1" parent="1" source="BFRysCJp0LdjBgDe9ejV-6" target="BFRysCJp0LdjBgDe9ejV-7">
          <mxGeometry relative="1" as="geometry" />
        </mxCell>
        <mxCell id="BFRysCJp0LdjBgDe9ejV-6" value="用户滑动开始" style="rounded=0;whiteSpace=wrap;html=1;" vertex="1" parent="1">
          <mxGeometry x="30" y="250" width="120" height="60" as="geometry" />
        </mxCell>
        <mxCell id="BFRysCJp0LdjBgDe9ejV-13" style="edgeStyle=orthogonalEdgeStyle;rounded=0;orthogonalLoop=1;jettySize=auto;html=1;exitX=1;exitY=0.5;exitDx=0;exitDy=0;entryX=0;entryY=0.5;entryDx=0;entryDy=0;" edge="1" parent="1" source="BFRysCJp0LdjBgDe9ejV-7" target="BFRysCJp0LdjBgDe9ejV-8">
          <mxGeometry relative="1" as="geometry" />
        </mxCell>
        <mxCell id="BFRysCJp0LdjBgDe9ejV-7" value="touchstart" style="rounded=0;whiteSpace=wrap;html=1;" vertex="1" parent="1">
          <mxGeometry x="170" y="250" width="120" height="60" as="geometry" />
        </mxCell>
        <mxCell id="BFRysCJp0LdjBgDe9ejV-14" style="edgeStyle=orthogonalEdgeStyle;rounded=0;orthogonalLoop=1;jettySize=auto;html=1;exitX=1;exitY=0.5;exitDx=0;exitDy=0;entryX=0;entryY=0.5;entryDx=0;entryDy=0;" edge="1" parent="1" source="BFRysCJp0LdjBgDe9ejV-8" target="BFRysCJp0LdjBgDe9ejV-9">
          <mxGeometry relative="1" as="geometry" />
        </mxCell>
        <mxCell id="BFRysCJp0LdjBgDe9ejV-8" value="touchmove" style="rounded=0;whiteSpace=wrap;html=1;" vertex="1" parent="1">
          <mxGeometry x="310" y="250" width="120" height="60" as="geometry" />
        </mxCell>
        <mxCell id="BFRysCJp0LdjBgDe9ejV-15" style="edgeStyle=orthogonalEdgeStyle;rounded=0;orthogonalLoop=1;jettySize=auto;html=1;exitX=1;exitY=0.5;exitDx=0;exitDy=0;entryX=0;entryY=0.5;entryDx=0;entryDy=0;" edge="1" parent="1" source="BFRysCJp0LdjBgDe9ejV-9" target="BFRysCJp0LdjBgDe9ejV-10">
          <mxGeometry relative="1" as="geometry" />
        </mxCell>
        <mxCell id="BFRysCJp0LdjBgDe9ejV-9" value="touchmove" style="rounded=0;whiteSpace=wrap;html=1;" vertex="1" parent="1">
          <mxGeometry x="450" y="250" width="120" height="60" as="geometry" />
        </mxCell>
        <mxCell id="BFRysCJp0LdjBgDe9ejV-16" style="edgeStyle=orthogonalEdgeStyle;rounded=0;orthogonalLoop=1;jettySize=auto;html=1;exitX=1;exitY=0.5;exitDx=0;exitDy=0;entryX=0;entryY=0.5;entryDx=0;entryDy=0;" edge="1" parent="1" source="BFRysCJp0LdjBgDe9ejV-10" target="BFRysCJp0LdjBgDe9ejV-11">
          <mxGeometry relative="1" as="geometry" />
        </mxCell>
        <mxCell id="BFRysCJp0LdjBgDe9ejV-10" value="touchend" style="rounded=0;whiteSpace=wrap;html=1;" vertex="1" parent="1">
          <mxGeometry x="590" y="250" width="120" height="60" as="geometry" />
        </mxCell>
        <mxCell id="BFRysCJp0LdjBgDe9ejV-19" style="edgeStyle=orthogonalEdgeStyle;rounded=0;orthogonalLoop=1;jettySize=auto;html=1;entryX=0.5;entryY=0;entryDx=0;entryDy=0;" edge="1" parent="1" source="BFRysCJp0LdjBgDe9ejV-11" target="BFRysCJp0LdjBgDe9ejV-18">
          <mxGeometry relative="1" as="geometry" />
        </mxCell>
        <mxCell id="BFRysCJp0LdjBgDe9ejV-11" value="用户滑动结束" style="rounded=0;whiteSpace=wrap;html=1;" vertex="1" parent="1">
          <mxGeometry x="730" y="250" width="120" height="60" as="geometry" />
        </mxCell>
        <mxCell id="BFRysCJp0LdjBgDe9ejV-21" style="edgeStyle=orthogonalEdgeStyle;rounded=0;orthogonalLoop=1;jettySize=auto;html=1;entryX=1;entryY=0.5;entryDx=0;entryDy=0;" edge="1" parent="1" source="BFRysCJp0LdjBgDe9ejV-18" target="BFRysCJp0LdjBgDe9ejV-20">
          <mxGeometry relative="1" as="geometry" />
        </mxCell>
        <mxCell id="BFRysCJp0LdjBgDe9ejV-23" style="edgeStyle=orthogonalEdgeStyle;rounded=0;orthogonalLoop=1;jettySize=auto;html=1;entryX=0.5;entryY=0;entryDx=0;entryDy=0;" edge="1" parent="1" source="BFRysCJp0LdjBgDe9ejV-18" target="BFRysCJp0LdjBgDe9ejV-22">
          <mxGeometry relative="1" as="geometry" />
        </mxCell>
        <mxCell id="BFRysCJp0LdjBgDe9ejV-18" value="是否为 flick ？" style="rhombus;whiteSpace=wrap;html=1;" vertex="1" parent="1">
          <mxGeometry x="750" y="350" width="80" height="80" as="geometry" />
        </mxCell>
        <mxCell id="BFRysCJp0LdjBgDe9ejV-25" style="edgeStyle=orthogonalEdgeStyle;rounded=0;orthogonalLoop=1;jettySize=auto;html=1;exitX=0;exitY=0.5;exitDx=0;exitDy=0;entryX=1;entryY=0.5;entryDx=0;entryDy=0;" edge="1" parent="1" source="BFRysCJp0LdjBgDe9ejV-20" target="BFRysCJp0LdjBgDe9ejV-24">
          <mxGeometry relative="1" as="geometry" />
        </mxCell>
        <mxCell id="BFRysCJp0LdjBgDe9ejV-20" value="计算惯性位移" style="rounded=0;whiteSpace=wrap;html=1;" vertex="1" parent="1">
          <mxGeometry x="590" y="360" width="120" height="60" as="geometry" />
        </mxCell>
        <mxCell id="BFRysCJp0LdjBgDe9ejV-22" value="结束" style="rounded=0;whiteSpace=wrap;html=1;" vertex="1" parent="1">
          <mxGeometry x="730" y="470" width="120" height="60" as="geometry" />
        </mxCell>
        <mxCell id="BFRysCJp0LdjBgDe9ejV-24" value="结束" style="rounded=0;whiteSpace=wrap;html=1;" vertex="1" parent="1">
          <mxGeometry x="450" y="360" width="120" height="60" as="geometry" />
        </mxCell>
      </root>
    </mxGraphModel>
  </diagram>
</mxfile>
